<svg xmlns="http://www.w3.org/2000/svg" viewBox="0 0 1024 1024" role="img" aria-labelledby="title desc">
  <title id="title">JY monogram logo</title>
  <desc id="desc">A glossy dark-indigo circular monogram with normally oriented letters J and Y.</desc>
  <defs>
    <linearGradient id="bg" x1="90" y1="70" x2="930" y2="950" gradientUnits="userSpaceOnUse">
      <stop offset="0" stop-color="#171b37"/>
      <stop offset="0.48" stop-color="#35335f"/>
      <stop offset="1" stop-color="#8a536d"/>
    </linearGradient>
    <radialGradient id="glow" cx="0" cy="0" r="1" gradientTransform="translate(296 235) rotate(48) scale(670)">
      <stop offset="0" stop-color="#aebcff" stop-opacity="0.62"/>
      <stop offset="0.42" stop-color="#a06fd9" stop-opacity="0.22"/>
      <stop offset="1" stop-color="#1d213e" stop-opacity="0"/>
    </radialGradient>
    <linearGradient id="letter" x1="300" y1="235" x2="770" y2="800" gradientUnits="userSpaceOnUse">
      <stop offset="0" stop-color="#ffffff"/>
      <stop offset="0.56" stop-color="#f4f0ff"/>
      <stop offset="1" stop-color="#d9d8ff"/>
    </linearGradient>
    <filter id="shadow" x="-25%" y="-25%" width="150%" height="150%">
      <feDropShadow dx="0" dy="20" stdDeviation="20" flood-color="#0a0d20" flood-opacity="0.45"/>
    </filter>
    <filter id="soft" x="-20%" y="-20%" width="140%" height="140%">
      <feGaussianBlur stdDeviation="16"/>
    </filter>
  </defs>

  <rect width="1024" height="1024" rx="512" fill="url(#bg)"/>
  <circle cx="512" cy="512" r="510" fill="url(#glow)"/>
  <ellipse cx="304" cy="208" rx="268" ry="108" fill="#ffffff" fill-opacity="0.10" filter="url(#soft)"/>
  <circle cx="824" cy="774" r="194" fill="#f56bba" fill-opacity="0.10" filter="url(#soft)"/>

  <g fill="none" stroke="url(#letter)" stroke-width="78" stroke-linecap="round" stroke-linejoin="round" filter="url(#shadow)">
    <!-- Normal J: right-side stem, then a hook curving to the left at the bottom. -->
    <path d="M486 294v288c0 104-48 157-138 157-88 0-139-55-139-160v-42"/>
    <!-- Normal Y: two upper arms join at the centre, followed by a vertical lower stem. -->
    <path d="M594 294l118 188 118-188M712 482v250"/>
  </g>

  <path d="M216 787c105 67 233 100 366 90" fill="none" stroke="#ffffff" stroke-opacity="0.18" stroke-width="12" stroke-linecap="round"/>
  <circle cx="213" cy="788" r="12" fill="#ffffff" fill-opacity="0.72"/>
  <circle cx="786" cy="798" r="10" fill="#f5c0ff" fill-opacity="0.92"/>
</svg>
